# xmcd CD database file generated by Grip 3.0.4
# 
# Track frame offsets:
#       150
#       12732
#       30746
#       45614
#       62689
#       79448
#       98832
#       110636
#       123814
#       137785
# 
# Disc length: 2128 seconds
# 
# Revision: 1
# Processed by: cddbd v1.5.1PL0 Copyright (c) Steve Scherf et al.
# Submitted via: Grip 3.0.4
# 
DISCID=88084e0a
DTITLE=Thistle - Tired Anchor
DYEAR=2003
DGENRE=Rock
TTITLE0=New Christ Killer
TTITLE1=Horsn and Cavalry
TTITLE2=Apron Strings
TTITLE3=Water and Rations
TTITLE4=And We're Ghost
TTITLE5=Arched or Bent, Every Cell Gave in
TTITLE6=Repent! Repent!
TTITLE7=Skinny Nails
TTITLE8=Daughters of Job
TTITLE9=Nation of Doves
EXTD=
EXTT0=
EXTT1=
EXTT2=
EXTT3=
EXTT4=
EXTT5=
EXTT6=
EXTT7=
EXTT8=
EXTT9=
PLAYORDER=
